<?xml version="1.0" standalone="no"?>
<!DOCTYPE svg PUBLIC "-//W3C//DTD SVG 20010904//EN"
 "http://www.w3.org/TR/2001/REC-SVG-20010904/DTD/svg10.dtd">
<svg version="1.0" xmlns="http://www.w3.org/2000/svg"
 width="612.000000pt" height="408.000000pt" viewBox="0 0 612.000000 408.000000"
 preserveAspectRatio="xMidYMid meet">

<g transform="translate(0.000000,408.000000) scale(0.100000,-0.100000)"
fill="#000000" stroke="none">
<path d="M928 2890 c-80 -20 -154 -86 -189 -167 -10 -24 -25 -43 -33 -43 -44
0 -62 -96 -23 -127 47 -40 47 -37 47 -513 0 -476 0 -473 -47 -513 -41 -33 -22
-127 25 -127 6 0 23 -24 37 -54 28 -60 88 -120 144 -144 53 -23 156 -20 212 5
62 28 122 89 144 147 10 25 23 46 30 46 6 0 22 11 34 24 19 20 22 31 17 61 -4
20 -14 39 -22 42 -42 16 -44 41 -44 513 0 475 0 473 47 517 30 29 30 73 0 101
-13 12 -28 22 -34 22 -6 0 -19 21 -30 48 -11 26 -32 61 -47 79 -54 64 -183
104 -268 83z m-49 -55 c-42 -32 -68 -65 -69 -87 0 -33 40 -42 220 -46 96 -2
179 -8 184 -13 9 -8 -412 -10 -446 -1 -20 5 -11 35 24 84 22 32 94 88 111 88
6 0 -5 -11 -24 -25z m281 -183 c0 -5 15 -16 33 -25 18 -9 25 -16 16 -16 -9 -1
-24 -12 -33 -26 l-16 -25 -173 0 c-135 1 -176 4 -191 15 -11 8 -16 15 -10 15
5 1 -2 7 -15 14 l-24 13 32 14 c17 8 31 17 31 21 0 5 79 8 175 8 96 0 175 -4
175 -8z m-72 -129 c-54 -2 -142 -2 -195 0 -54 1 -10 3 97 3 107 0 151 -2 98
-3z m-252 -63 c55 -37 59 -39 62 -19 6 35 36 18 42 -23 5 -34 16 -45 125 -127
66 -50 124 -91 128 -91 4 0 7 23 5 52 l-3 52 -122 92 c-67 50 -120 94 -116 98
3 3 37 6 74 6 60 0 72 -4 118 -35 l51 -35 0 36 c0 24 4 34 13 32 16 -6 18
-909 1 -915 -6 -2 -64 36 -130 85 -65 48 -125 91 -131 96 -10 5 -13 -6 -13
-48 0 -53 1 -56 45 -87 24 -17 42 -36 39 -40 -3 -5 -35 -9 -72 -9 -58 0 -73 4
-112 30 l-45 30 -3 -24 c-2 -13 -10 -27 -18 -30 -12 -5 -14 58 -14 454 0 253
4 460 9 460 4 0 35 -18 67 -40z m252 -907 c-54 -2 -142 -2 -195 0 -54 1 -10 3
97 3 107 0 151 -2 98 -3z m111 -62 l30 -30 -29 -12 c-16 -7 -26 -17 -24 -21 3
-4 -74 -8 -170 -8 -97 0 -176 4 -176 8 0 4 -17 14 -37 21 l-37 14 30 12 c16 8
25 14 19 15 -5 0 -1 7 9 15 16 12 56 15 188 15 l167 0 30 -29z m31 -111 c0
-31 -64 -111 -110 -138 l-45 -26 46 42 c47 42 62 70 50 91 -12 19 -110 31
-257 31 -84 0 -145 4 -149 10 -4 7 75 10 229 9 219 -1 236 -3 236 -19z"/>
<path d="M790 2312 c0 -41 5 -63 15 -72 13 -11 15 -5 15 48 0 41 -5 63 -15 72
-13 11 -15 5 -15 -48z"/>
<path d="M860 2257 c0 -49 12 -77 32 -77 13 0 9 105 -4 118 -22 22 -28 13 -28
-41z"/>
<path d="M940 2201 l0 -59 98 -73 c53 -40 112 -83 130 -97 l32 -24 0 58 0 59
-130 97 -130 97 0 -58z"/>
<path d="M790 2067 c0 -37 5 -59 16 -67 13 -12 15 -6 12 50 -2 40 -8 65 -15
68 -9 3 -13 -12 -13 -51z"/>
<path d="M860 2017 c0 -49 12 -77 32 -77 4 0 8 25 8 55 0 44 -4 56 -20 65 -19
10 -20 8 -20 -43z"/>
<path d="M940 1957 c0 -61 -4 -56 168 -181 l93 -67 -3 58 -3 58 -120 92 c-66
51 -123 92 -127 92 -5 1 -8 -23 -8 -52z"/>
<path d="M790 1826 c0 -35 5 -58 15 -66 13 -11 15 -5 15 48 0 44 -4 61 -15 66
-12 4 -15 -5 -15 -48z"/>
<path d="M860 1777 c0 -49 12 -77 32 -77 4 0 8 24 8 53 0 41 -4 55 -20 65 -19
12 -20 10 -20 -41z"/>
<path d="M5063 2891 c-84 -22 -167 -97 -193 -177 -6 -19 -17 -34 -24 -34 -22
0 -56 -45 -56 -74 0 -15 10 -36 23 -49 47 -44 47 -42 47 -517 0 -475 0 -473
-47 -517 -30 -29 -30 -73 0 -101 13 -12 28 -22 34 -22 6 0 18 -21 28 -46 21
-55 77 -114 137 -145 60 -32 165 -31 230 0 57 27 112 86 138 147 11 24 26 44
34 44 44 0 62 96 24 127 -48 40 -48 37 -48 513 0 476 0 473 48 513 29 24 30
79 2 107 -11 11 -26 20 -33 20 -8 0 -19 17 -25 39 -16 51 -82 124 -136 150
-51 24 -136 34 -183 22z m187 -48 c62 -41 97 -84 114 -140 l7 -23 -237 0
c-277 0 -309 16 -44 22 177 4 220 12 220 44 0 24 -30 64 -69 90 -20 13 -31 24
-26 24 6 0 22 -7 35 -17z m60 -192 c0 -5 15 -14 33 -21 27 -10 29 -13 14 -19
-10 -4 -18 -10 -17 -15 1 -4 -7 -14 -17 -22 -22 -16 -363 -21 -363 -4 0 6 -7
10 -16 10 -8 0 -12 5 -9 10 3 6 -3 14 -15 18 -20 7 -18 9 17 29 34 19 55 21
206 22 93 1 167 -3 167 -8z m-87 -128 c-51 -2 -136 -2 -190 0 -54 1 -12 3 92
3 105 0 149 -2 98 -3z m-303 -59 l0 -36 49 36 c45 33 54 36 118 36 38 0 73 -3
76 -6 4 -4 -49 -48 -116 -98 l-122 -91 -3 -52 c-2 -29 0 -53 3 -53 3 0 61 41
128 90 111 83 122 94 127 127 6 42 26 55 38 23 8 -21 9 -20 52 13 25 19 55 37
68 41 l22 7 0 -461 c0 -365 -3 -461 -12 -458 -7 3 -14 17 -16 31 -2 15 -5 27
-8 27 -2 0 -23 -13 -46 -30 -36 -26 -49 -30 -109 -30 -37 0 -70 4 -73 9 -3 4
15 23 39 40 44 31 45 34 45 87 0 41 -3 53 -12 48 -7 -4 -63 -45 -125 -90 -61
-46 -120 -84 -130 -86 -17 -3 -18 18 -21 442 -1 245 0 451 3 458 9 25 25 11
25 -24z m308 -911 c-54 -2 -142 -2 -195 0 -54 1 -10 3 97 3 107 0 151 -2 98
-3z m76 -48 c11 -8 16 -15 10 -16 -5 0 4 -6 20 -14 l30 -12 -37 -14 c-20 -7
-34 -16 -31 -21 3 -4 -76 -8 -176 -8 -100 0 -179 4 -176 8 3 5 -11 14 -31 21
l-37 14 30 12 c16 8 25 14 21 14 -4 1 -2 8 5 16 19 21 344 21 372 0z m51 -114
c-6 -5 -89 -11 -185 -14 -205 -6 -220 -9 -220 -47 0 -21 12 -39 48 -71 l47
-43 -45 26 c-46 27 -110 106 -110 137 0 15 22 17 237 19 142 1 233 -2 228 -7z"/>
<path d="M5311 2356 c-13 -16 -17 -103 -5 -115 14 -14 25 23 22 74 -3 52 -4
56 -17 41z"/>
<path d="M5232 2298 c-13 -13 -17 -118 -4 -118 20 0 32 28 32 77 0 54 -6 63
-28 41z"/>
<path d="M5043 2157 l-123 -91 0 -58 0 -58 63 47 c34 25 92 68 130 96 l67 49
0 54 c0 30 -3 54 -7 53 -5 0 -63 -41 -130 -92z"/>
<path d="M5307 2113 c-4 -3 -7 -33 -7 -66 0 -52 2 -58 15 -47 10 8 15 31 15
66 0 50 -7 64 -23 47z"/>
<path d="M5238 2059 c-14 -8 -18 -23 -18 -64 0 -30 4 -55 9 -55 20 0 32 31 29
79 -3 44 -5 49 -20 40z"/>
<path d="M5052 1923 c-69 -50 -124 -97 -128 -109 -3 -11 -4 -39 -2 -61 l3 -40
117 86 c64 47 122 91 128 97 6 6 10 34 8 63 l-3 52 -123 -88z"/>
<path d="M5307 1873 c-4 -3 -7 -31 -7 -60 0 -76 24 -67 28 10 3 52 -4 68 -21
50z"/>
<path d="M5238 1819 c-14 -8 -18 -23 -18 -64 0 -30 4 -55 9 -55 20 0 32 31 29
79 -3 44 -5 49 -20 40z"/>
<path d="M3037 2817 c-42 -55 -50 -85 -32 -114 33 -50 103 -49 126 1 16 33 6
65 -33 110 l-34 39 -27 -36z m57 -52 c16 -29 17 -37 6 -50 -19 -23 -64 -15
-68 12 -3 21 23 73 37 73 3 0 15 -16 25 -35z"/>
<path d="M2859 2661 c-26 -27 -30 -37 -25 -64 8 -40 30 -57 72 -57 23 0 38 7
48 22 20 29 20 34 -4 58 -16 16 -25 18 -40 10 -27 -14 -25 -39 3 -50 21 -8 21
-9 -5 -9 -34 -1 -54 30 -38 58 30 58 130 22 130 -47 0 -12 -11 -34 -25 -47
l-24 -25 -791 0 c-700 0 -790 -2 -790 -15 0 -14 90 -15 801 -13 l801 3 29 33
c58 65 21 157 -68 169 -38 5 -45 2 -74 -26z"/>
<path d="M3152 2671 c-21 -14 -35 -32 -38 -51 -12 -60 -1 -96 38 -120 32 -19
51 -20 826 -20 697 0 792 2 792 15 0 13 -94 15 -786 15 -882 0 -843 -4 -844
77 0 34 37 73 69 73 32 0 62 -30 59 -58 -2 -22 -9 -28 -33 -30 -25 -2 -27 -1
-12 8 9 6 17 20 17 30 0 15 -7 20 -30 20 -24 0 -31 -5 -36 -27 -10 -37 7 -57
50 -61 48 -4 76 19 76 63 0 72 -81 107 -148 66z"/>
<path d="M1640 2585 c0 -13 69 -15 560 -15 491 0 560 2 560 15 0 13 -69 15
-560 15 -491 0 -560 -2 -560 -15z"/>
<path d="M3380 2585 c0 -13 69 -15 560 -15 491 0 560 2 560 15 0 13 -69 15
-560 15 -491 0 -560 -2 -560 -15z"/>
<path d="M4057 2370 c-4 -16 -9 -18 -36 -10 -32 9 -313 12 -343 4 -10 -3 -18
-14 -18 -24 0 -13 5 -17 19 -13 38 10 51 -22 51 -121 0 -79 -3 -97 -20 -119
l-21 -26 21 -21 c18 -18 20 -33 20 -129 0 -116 -9 -141 -51 -141 -27 0 -24
-29 4 -35 33 -7 317 0 360 10 34 7 37 6 37 -14 0 -24 18 -27 44 -8 11 8 19 29
21 57 1 25 4 50 6 55 1 6 -2 28 -8 50 -6 22 -14 52 -17 68 -4 17 -13 27 -25
27 -14 0 -19 -10 -24 -49 -13 -109 -64 -161 -145 -147 -58 9 -62 17 -62 138 0
119 6 130 59 112 22 -8 27 -16 29 -52 6 -75 47 -42 56 45 8 84 -4 137 -32 141
-19 3 -22 -1 -22 -27 0 -40 -23 -51 -107 -51 l-68 0 43 26 42 25 0 68 c0 76
13 96 67 107 62 12 123 -53 123 -131 0 -18 5 -25 19 -25 25 0 30 9 37 57 10
76 4 147 -13 161 -24 17 -40 15 -46 -8z"/>
<path d="M1608 2374 c-4 -4 -54 -7 -110 -6 -60 1 -107 -3 -115 -10 -18 -14
-17 -39 1 -32 8 3 24 1 35 -6 19 -10 21 -20 21 -115 0 -92 -2 -107 -20 -123
l-20 -19 20 -18 c18 -16 20 -31 20 -136 0 -110 -2 -119 -21 -129 -11 -7 -27
-9 -35 -6 -18 7 -19 -18 -1 -32 7 -6 58 -12 112 -12 55 -1 125 -2 156 -3 68
-1 136 23 174 63 32 33 86 138 75 145 -4 3 -19 29 -34 58 -16 34 -36 58 -53
66 -25 11 -26 14 -10 22 25 15 78 130 66 145 -5 6 -19 31 -32 54 -16 30 -36
50 -69 67 -47 24 -147 42 -160 27z m84 -71 c15 -13 18 -31 18 -99 0 -110 -4
-114 -123 -113 l-92 0 43 22 42 21 0 75 c0 55 4 79 17 93 20 22 70 23 95 1z
m8 -283 c17 -17 20 -33 20 -110 0 -79 -3 -92 -22 -110 -28 -26 -72 -26 -98 0
-18 18 -20 33 -20 130 l0 110 50 0 c37 0 55 -5 70 -20z"/>
<path d="M2738 2375 c-4 -4 -51 -7 -105 -7 -116 1 -133 -3 -133 -28 0 -13 5
-18 15 -13 9 3 25 -3 35 -12 17 -16 20 -31 20 -110 0 -78 -3 -96 -20 -118
l-21 -26 21 -21 c18 -18 20 -33 20 -129 0 -130 -6 -141 -75 -137 -25 1 -52 9
-59 17 -7 8 -30 63 -50 123 -31 94 -34 113 -23 129 11 17 9 23 -13 46 -33 34
-79 195 -63 219 6 10 18 16 27 16 12 -2 16 4 14 20 -3 20 -8 21 -133 23 -77 1
-135 -3 -142 -9 -22 -18 -14 -37 15 -40 24 -3 27 -7 26 -35 -3 -55 -44 -174
-69 -199 -13 -13 -19 -26 -14 -29 5 -4 9 -19 9 -36 0 -25 4 -29 28 -29 28 0
29 2 62 130 19 72 37 127 41 123 8 -10 79 -266 79 -286 0 -11 -21 -14 -97 -15
-54 -1 -116 -1 -137 -2 -39 0 -39 0 -21 -20 18 -20 18 -23 2 -74 -20 -61 -38
-81 -68 -73 -16 4 -20 1 -17 -16 3 -21 9 -22 94 -25 71 -2 94 1 103 12 16 19
6 36 -17 30 -9 -3 -25 1 -34 8 -16 12 -16 17 -4 58 l13 45 103 0 103 0 14 -49
c16 -53 14 -58 -20 -62 -12 -1 -23 -3 -25 -3 -1 -1 2 -10 7 -20 10 -17 23 -19
132 -19 93 0 122 3 126 14 4 11 7 11 19 0 16 -17 232 -20 252 -4 18 15 15 37
-5 32 -39 -9 -47 10 -51 120 l-4 106 37 0 c76 0 94 -27 105 -151 4 -49 13 -95
20 -104 16 -19 169 -22 188 -3 19 19 14 37 -7 31 -35 -9 -61 30 -61 92 0 68
-19 118 -55 141 l-26 17 35 29 c22 18 39 44 46 67 6 21 17 44 25 51 13 11 12
15 -5 37 -11 14 -20 33 -20 42 0 30 -39 80 -79 101 -42 21 -151 38 -163 25z
m84 -72 c15 -13 18 -32 18 -114 0 -126 -3 -129 -117 -129 -89 0 -92 2 -46 29
26 16 27 20 27 110 1 80 4 95 20 107 27 19 75 18 98 -3z"/>
<path d="M3317 2373 c-4 -3 -53 -6 -109 -5 -59 0 -108 -4 -115 -10 -18 -14
-16 -39 1 -32 8 3 24 1 35 -6 19 -10 21 -20 21 -120 0 -97 -2 -110 -20 -123
-19 -13 -19 -13 1 -30 18 -16 19 -28 17 -139 l-3 -123 -30 -9 c-40 -13 -40
-13 -26 -30 12 -14 30 -16 278 -19 102 -1 175 46 223 146 l25 52 -27 56 c-15
31 -39 64 -53 73 l-27 18 20 21 c11 12 29 43 40 69 l20 46 -24 51 c-28 59 -75
95 -144 110 -52 12 -94 14 -103 4z m86 -70 c18 -21 20 -35 18 -120 -1 -87 -10
-93 -124 -92 l-92 0 43 22 42 21 0 73 c0 60 4 77 20 93 25 25 72 26 93 3z m8
-282 c21 -17 24 -29 28 -105 3 -80 2 -86 -23 -110 -31 -32 -78 -34 -106 -6
-18 18 -20 33 -20 130 l0 110 49 0 c33 0 56 -6 72 -19z"/>
<path d="M4438 2374 c-5 -4 -54 -7 -110 -6 -59 0 -108 -4 -115 -10 -18 -14
-16 -39 1 -32 8 3 24 1 35 -6 19 -10 21 -20 21 -115 0 -90 -3 -108 -19 -124
-19 -19 -19 -20 0 -37 17 -15 19 -31 19 -135 0 -110 -2 -119 -21 -129 -11 -7
-27 -9 -35 -6 -17 7 -19 -18 -1 -32 7 -6 61 -10 132 -9 105 2 120 4 123 20 2
11 -3 17 -15 17 -36 0 -43 20 -43 127 l0 103 36 0 c72 0 89 -27 98 -154 8
-108 16 -116 122 -116 73 0 85 2 94 20 9 17 8 20 -13 20 -41 0 -60 33 -66 113
-7 79 -26 121 -62 132 -20 7 -19 8 10 26 29 17 61 65 61 90 0 7 7 20 16 30 14
15 14 20 1 41 -8 12 -17 35 -21 50 -8 34 -50 85 -87 104 -33 17 -150 30 -161
18z m96 -76 c12 -16 16 -47 16 -108 0 -124 -6 -130 -123 -130 l-92 1 38 20 37
19 0 92 c0 108 11 128 71 128 28 0 42 -6 53 -22z"/>
<path d="M2600 1610 c-11 -11 -20 -27 -20 -36 0 -22 41 -94 51 -88 4 2 20 -6
35 -19 23 -20 25 -26 15 -45 -6 -12 -20 -22 -31 -22 -24 0 -53 41 -44 64 3 9
2 16 -4 16 -13 0 -22 -25 -22 -65 0 -32 0 -32 52 -34 71 -1 98 18 98 68 0 25
-7 44 -20 56 -11 10 -20 24 -20 31 0 7 -6 11 -13 8 -19 -7 -49 30 -41 50 13
33 64 12 64 -27 0 -10 5 -15 10 -12 6 3 10 21 10 39 0 32 -1 33 -50 35 -38 1
-54 -3 -70 -19z"/>
<path d="M2820 1620 c0 -5 4 -10 9 -10 6 0 10 -46 10 -105 0 -61 -4 -105 -9
-105 -6 0 -10 -5 -10 -10 0 -11 88 -11 95 1 3 4 -2 10 -11 13 -11 4 -14 17
-12 48 3 40 5 43 36 46 l32 3 0 -50 c0 -29 -5 -51 -11 -51 -5 0 -7 -4 -4 -10
3 -5 26 -10 51 -10 24 0 44 5 44 10 0 6 -4 10 -10 10 -5 0 -9 44 -9 105 0 59
4 105 10 105 5 0 9 5 9 10 0 6 -23 10 -52 10 -40 0 -49 -3 -40 -12 7 -7 12
-31 12 -55 l0 -43 -38 0 -38 0 4 41 c3 22 10 43 18 46 30 11 12 23 -36 23 -27
0 -50 -4 -50 -10z"/>
<path d="M3152 1607 c-71 -75 -32 -227 58 -227 88 0 133 158 64 227 -32 32
-92 32 -122 0z m86 -99 c2 -89 0 -97 -18 -103 -11 -3 -24 -4 -29 0 -10 6 -13
183 -4 198 3 4 15 7 26 5 21 -3 22 -9 25 -100z"/>
<path d="M3412 1617 c23 -18 25 -205 2 -214 -27 -10 -2 -23 47 -23 47 0 65 12
34 24 -9 3 -15 18 -15 34 0 27 4 30 40 36 31 5 45 14 60 39 23 37 19 63 -16
95 -21 19 -36 22 -97 22 -60 -1 -69 -3 -55 -13z m116 -64 c-3 -50 -6 -58 -23
-58 -16 0 -21 8 -23 44 -4 55 2 71 28 71 19 0 21 -5 18 -57z"/>
<path d="M1370 1586 c0 -13 67 -16 521 -18 l521 -3 19 -24 c26 -32 24 -67 -6
-96 -32 -33 -79 -33 -100 -1 -22 32 -5 66 31 66 l26 0 -23 -19 c-22 -18 -23
-21 -8 -36 38 -39 85 14 54 61 -36 55 -137 5 -121 -60 9 -38 45 -66 82 -66
101 0 150 100 85 172 l-29 33 -526 3 c-461 2 -526 1 -526 -12z"/>
<path d="M3712 1585 c-22 -10 -38 -27 -48 -51 -30 -71 9 -132 90 -141 38 -5
48 -2 70 20 65 65 -5 159 -85 117 -39 -22 -16 -97 28 -88 25 5 29 39 7 55 -17
12 -17 13 2 13 43 0 58 -44 26 -73 -37 -33 -91 -17 -112 33 -10 25 -10 34 4
55 10 14 28 30 42 35 15 6 233 10 530 10 441 0 504 2 504 15 0 13 -63 15 -512
15 -422 -1 -519 -3 -546 -15z"/>
</g>
</svg>
